<svg t="1617024298858" class="icon" viewBox="0 0 1024 1024" version="1.1" xmlns="http://www.w3.org/2000/svg" p-id="10279" width="16" height="16"><path d="M510.304 160a32 32 0 0 1 3.712 63.776L510.304 224h-237.44c-42.944 0-77.952 31.776-80.704 70.816L192 299.744v456.512c0 39.584 33.28 72.96 75.52 75.584l5.344 0.16h478.272c42.944 0 77.952-31.776 80.704-70.816l0.16-4.928v-228.672a32 32 0 0 1 63.776-3.712l0.224 3.712v228.672c0 75.072-61.76 136.16-138.08 139.584l-6.784 0.16H272.864c-77.152 0-141.12-58.944-144.704-133.12L128 756.224V299.744C128 224.64 189.76 163.584 266.08 160.16L272.864 160h237.44z m343.328 8.416a32 32 0 0 1 4.48 42.08l-2.528 3.136-352 384a32 32 0 0 1-49.696-40.128l2.528-3.136 352-384a32 32 0 0 1 45.216-1.952z" p-id="10280" fill="#bfbfbf"></path></svg>