<svg t="1614693689484" class="icon" viewBox="0 0 1024 1024" version="1.1" xmlns="http://www.w3.org/2000/svg" p-id="20347" width="16" height="16"><path d="M505.173 68.267c244.313 0 442.368 198.055 442.368 442.368S749.486 953.003 505.173 953.003 62.805 754.948 62.805 510.635 260.86 68.267 505.173 68.267z m0 84.529c-197.629 0-357.839 160.21-357.839 357.839s160.21 357.839 357.84 357.839c197.628 0 357.838-160.21 357.838-357.84 0-197.628-160.21-357.838-357.839-357.838z m8.192 319.61c22.622 0 40.96 18.338 40.96 40.96v172.031c0 22.622-18.338 40.96-40.96 40.96-22.621 0-40.96-18.338-40.96-40.96V513.365c0-22.621 18.339-40.96 40.96-40.96z m0-141.995c22.622 0 40.96 18.338 40.96 40.96 0 22.621-18.338 40.96-40.96 40.96-22.621 0-40.96-18.339-40.96-40.96 0-22.622 18.339-40.96 40.96-40.96z" p-id="20348" fill="#8a8a8a"></path></svg>