<svg t="1614865037062" class="icon" viewBox="0 0 1024 1024" version="1.1" xmlns="http://www.w3.org/2000/svg" p-id="48752" width="16" height="16"><path d="M487.424 940.032c-120.832 0-323.584-20.48-323.584-102.4s202.752-104.448 323.584-104.448 323.584 22.528 323.584 104.448-202.752 102.4-323.584 102.4z m0-159.744c-182.272 0-272.384 40.96-276.48 57.344 4.096 16.384 94.208 57.344 276.48 57.344s272.384-40.96 276.48-57.344c-4.096-16.384-94.208-57.344-276.48-57.344z m276.48 57.344z" fill="#e9374c" p-id="48753"></path><path d="M489.472 79.872c-145.408 0-262.144 116.736-262.144 262.144s262.144 512 262.144 512 262.144-366.592 262.144-512S634.88 79.872 489.472 79.872z m0 272.384c-32.768 0-57.344-24.576-57.344-57.344 0-32.768 24.576-57.344 57.344-57.344 32.768 0 57.344 24.576 57.344 57.344 0 32.768-26.624 57.344-57.344 57.344z" fill="#e9374c" p-id="48754"></path></svg>