<svg t="1614864201373" class="icon" viewBox="0 0 1024 1024" version="1.1" xmlns="http://www.w3.org/2000/svg" p-id="35896" width="16" height="16"><path d="M852.6 545.9H171.4l66.9 246.4c10.6 39.1 48.3 66.5 91.5 66.5 0 0 76.2 16.9 182.3 18.6 106.1 1.7 182.3-18.6 182.3-18.6 43.2 0 80.9-27.4 91.5-66.5l66.7-246.4z" fill="#FF6687" p-id="35897"></path><path d="M363.8 864.6h-57.9s-19.6-71.8-37.3-151.7-29.8-151.7-29.8-151.7h74.6s7.3 76.2 21.5 151.7 28.9 151.7 28.9 151.7zM480.4 877.4h-57.9s-9.8-72-18-158.1-12.3-158.1-12.3-158.1h74.6s0.2 69.2 4 158.1c3.7 88.9 9.6 158.1 9.6 158.1zM660.2 864.6h57.9s19.6-71.8 37.3-151.7 29.8-151.7 29.8-151.7h-74.6s-7.3 76.2-21.5 151.7-28.9 151.7-28.9 151.7zM543.6 877.4h57.9s9.8-72 18-158.1 12.3-158.1 12.3-158.1h-74.6s-0.2 69.2-4 158.1c-3.7 88.9-9.6 158.1-9.6 158.1z" fill="#FFD7E1" p-id="35898"></path><path d="M852.6 551.3l-66.9 242.5c-10.6 38.5-46.4 55.3-91.5 65.4 0 0-83.6 18.3-182.3 18.3s-182.3-18.3-182.3-18.3c-39.6-8.3-80.9-26.9-91.5-65.4l-66.9-242.5h681.4m0-20H171.4c-6.2 0-12.1 2.9-15.9 7.9-3.8 5-5 11.4-3.4 17.4L219 799.1c6.2 22.6 20.8 41.3 43.4 55.6 16.9 10.7 38.2 18.8 63.1 24 4.7 1 87.5 18.7 186.5 18.7 99.7 0 183.1-18 186.6-18.7h0.1c28-6.3 48.7-14.1 65.2-24.8 21.1-13.6 34.9-32.1 41.2-54.8l66.7-241.9c0.6-1.8 0.9-3.8 0.9-5.8-0.1-11.2-9-20.1-20.1-20.1z m0 40z" fill="#543630" p-id="35899"></path><path d="M771.5 375.6C762.9 308.4 705.2 257 622.1 257c-57.2 0-129.5 28.7-161.5 67.4-24.6-21.9-58.2-35.3-95.3-35.3-75.5 0-127.6 47.1-127.6 116.2 0 4 0.2 7.9 0.6 11.8C172.5 422.6 112 468.8 112 525c0 59.9 58.5 108.5 130.6 108.5 31.4 0 60.1-9.2 82.6-24.5 33 43.3 87.8 71.6 149.9 71.6 57.8 0 109.4-24.6 142.8-63 26.7 12.2 57.7 20.2 91.3 22.2 106.4 6.5 197.1-48.7 202.6-123.3 4.7-64.3-55.5-122-140.3-140.9z" fill="#FFFFFF" p-id="35900"></path><path d="M475.1 690.6c-59.5 0-115.7-25.4-152.1-68.4-23.5 13.8-51.7 21.3-80.4 21.3-77.5 0-140.6-53.2-140.6-118.5 0-29.6 15-58.2 42.1-80.7 22.8-18.8 52.8-31.7 83.6-36.1v-2.9c0-74.3 56.6-126.2 137.6-126.2 34.8 0 67.9 11.1 94.3 31.5 35.6-36.2 104.5-63.6 162.5-63.6 42.3 0 80 12.6 109 36.4 26.1 21.4 43.4 51 49.3 84 40.5 10.1 76.5 29.4 101.8 54.5 27.9 27.7 41.9 61.6 39.5 95.3-2.9 39.4-27.1 74.9-68.2 99.9-40 24.3-91.5 35.9-144.9 32.7-30.9-1.9-61.2-8.8-88.1-20.2-36.6 38.9-89.2 61-145.4 61zM325.2 599c3 0 6 1.4 8 3.9 32.3 42.4 85.3 67.7 141.9 67.7 53 0 102.3-21.7 135.3-59.6 2.9-3.3 7.7-4.4 11.7-2.5 26.3 12.1 56.6 19.4 87.7 21.3 5.5 0.3 11 0.5 16.4 0.5 93.6 0 170.7-49.3 175.5-114.6 2.1-28.3-9.5-55.8-33.6-79.7-24.1-23.9-59.2-42-98.8-50.8-4.1-0.9-7.2-4.3-7.7-8.5-3.9-30.7-19.3-58.4-43.2-78C693 278 659.7 267 622.1 267c-55.7 0-124.7 28.6-153.8 63.8-1.7 2.1-4.2 3.4-6.9 3.6-2.7 0.2-5.4-0.7-7.4-2.5-23.8-21.2-55.3-32.8-88.6-32.8-70.3 0-117.6 42.7-117.6 106.2 0 3.5 0.2 7.1 0.6 10.7 0.3 2.7-0.5 5.3-2.2 7.4s-4.2 3.4-6.9 3.6c-30.2 2.6-60.2 14.5-82.3 32.8-22.6 18.5-35 41.6-35 65.2 0 54.3 54.1 98.5 120.6 98.5 28.1 0 55.4-8.1 77-22.8 1.7-1.1 3.7-1.7 5.6-1.7z" fill="#543630" p-id="35901"></path><path d="M354 394.5a25.2 25.2 0 1 0 50.4 0 25.2 25.2 0 1 0-50.4 0Z" fill="#FF6687" p-id="35902"></path><path d="M209.3 518.1a30.6 30.6 0 1 0 61.2 0 30.6 30.6 0 1 0-61.2 0Z" fill="#FF6687" p-id="35903"></path><path d="M423.4 562a46.1 46.1 0 1 0 92.2 0 46.1 46.1 0 1 0-92.2 0Z" fill="#FF6687" p-id="35904"></path><path d="M629.2 482.5a35.9 35.9 0 1 0 71.8 0 35.9 35.9 0 1 0-71.8 0Z" fill="#FF6687" p-id="35905"></path><path d="M787.8 533a17.4 17.4 0 1 0 34.8 0 17.4 17.4 0 1 0-34.8 0Z" fill="#FF6687" p-id="35906"></path><path d="M670.7 330.6a17 17 0 1 0 34 0 17 17 0 1 0-34 0Z" fill="#FF6687" p-id="35907"></path><path d="M623.4 344.6c0 58.1-25.7 105.2-114.1 105.2-96.5 0-114.1-47.1-114.1-105.2s56.1-105.2 114.1-105.2 114.1 47.1 114.1 105.2z" fill="#FF6687" p-id="35908"></path><path d="M509.3 459.8c-47.9 0-80.9-11.2-100.8-34.3-20.9-24.2-23.3-57.8-23.3-80.9 0-30.5 13.7-59.6 38.6-81.9 23.7-21.2 54.9-33.4 85.5-33.4s61.8 12.2 85.5 33.4c24.9 22.3 38.6 51.4 38.6 81.9 0 34.7-8.9 62-26.6 81.2-20.7 22.6-53.5 34-97.5 34z m0-210.4c-25.8 0-52.1 10.3-72.2 28.3-20.6 18.4-32 42.2-32 66.9 0 32.2 5.7 53.1 18.5 67.9 15.9 18.4 44 27.4 85.7 27.4 38.2 0 66.1-9.3 82.9-27.6 14.1-15.4 21.3-38.1 21.3-67.6 0-24.7-11.3-48.5-32-66.9-20.1-18.1-46.4-28.4-72.2-28.4z" fill="#543630" p-id="35909"></path><path d="M510 241.7s7.6-131.1 93.1-85.4c92.2 49.1-93.1 85.4-93.1 85.4z" fill="#A8E5AD" p-id="35910"></path><path d="M510 251.7c-2.4 0-4.7-0.9-6.6-2.5-2.3-2-3.6-5-3.4-8.1 0.2-3.1 4.8-75.7 44.6-98 17.8-10 39.1-8.5 63.2 4.3 22.6 12.1 32.9 25.6 30.7 40.2-1.6 10.9-9.9 20.6-25.4 29.8-10.7 6.3-25 12.5-42.5 18.4-29.3 9.8-57.5 15.4-58.7 15.6-0.6 0.2-1.2 0.3-1.9 0.3z m60-95.1c-5.7 0-10.9 1.3-15.5 3.9-20.3 11.4-29.6 46.1-33 68.4 10.8-2.5 26.9-6.7 43-12.1 49.6-16.6 53.9-29.7 54.3-32.2 0.8-5.1-6.9-12.4-20.4-19.6-10.5-5.6-20-8.4-28.4-8.4z" fill="#543630" p-id="35911"></path><path d="M505 268.3c-0.9 0-1.9-0.1-2.9-0.4-5.3-1.6-8.3-7.1-6.7-12.4 0.2-0.8 6.1-20.1 22-42.3 21.2-29.4 50.4-50.1 84.5-60 5.3-1.5 10.9 1.5 12.4 6.8s-1.5 10.9-6.8 12.4c-29.9 8.7-54.6 26.1-73.4 51.9-14.2 19.5-19.5 36.7-19.5 36.9-1.3 4.3-5.3 7.1-9.6 7.1z" fill="#543630" p-id="35912"></path><path d="M484.1 266.5a17.1 12.7 0 1 0 34.2 0 17.1 12.7 0 1 0-34.2 0Z" fill="#543630" p-id="35913"></path><path d="M578.5 370.5c-1.3 0-2.7-0.3-4-0.8-5.1-2.2-7.4-8.1-5.2-13.2 10.2-23.3-8.7-41.9-9.5-42.6-4-3.8-4.2-10.1-0.4-14.1 3.8-4 10.1-4.2 14.2-0.4 1.2 1.2 29.9 28.8 14.1 65.1-1.7 3.7-5.4 6-9.2 6z" fill="#FFFFFF" p-id="35914"></path><path d="M555.912045 392.877755a10.599788 10.599788 0 1 0 21.155484-1.366581 10.599788 10.599788 0 1 0-21.155484 1.366581Z" fill="#FFFFFF" p-id="35915"></path></svg>