<svg t="1614862089407" class="icon" viewBox="0 0 1024 1024" version="1.1" xmlns="http://www.w3.org/2000/svg" p-id="19592" width="16" height="16"><path d="M938.7 404.7c-7.9-24.3-21.3-45.9-39.9-64.2-17.5-17.2-38.7-30.8-63.1-40.2-43-16.7-92-19.2-139.8-7.5-3.1-50.2-20.7-97.1-50.5-133.6-16.5-20.3-36-36.3-57.8-47.5-23.2-12-47.8-18.1-73.3-18.1s-50.2 6.1-73.3 18.1c-21.8 11.3-41.2 27.3-57.8 47.5-29.2 35.7-46.7 81.5-50.3 130.6-48.7-12.6-98.8-10.3-142.6 6.7-24.4 9.5-45.6 23-63.1 40.2-18.6 18.3-32 39.9-39.9 64.2-7.9 24.3-9.7 49.6-5.5 75.3 4 24.2 13.2 47.6 27.4 69.6 25 38.8 63.1 69.6 108.7 88.2-27 42.4-40.3 90.8-37.7 137.7 1.5 26.1 7.8 50.5 18.8 72.4 11.7 23.3 28.1 42.7 48.7 57.7s44.2 24.6 70 28.5c24.3 3.7 49.4 2.2 74.7-4.5 44.6-11.8 85.7-38.5 117.5-76.1 32 38.8 73.9 66.4 119.4 78.4 16.3 4.3 32.6 6.5 48.6 6.5 8.8 0 17.5-0.7 26.1-2 25.8-3.9 49.3-13.5 70-28.5 20.6-15 37-34.4 48.7-57.7 11-21.9 17.3-46.3 18.8-72.4 2.6-46-10.1-93.4-36.1-135.2 46.8-18.4 86-49.7 111.4-89.3 14.2-22 23.4-45.4 27.4-69.6 4.2-25.6 2.4-50.9-5.5-75.2zM858 511.8c-19.4 30.2-51.1 53.6-89.2 66-9.4 3-18.9 5.3-28.5 6.8l-1.9 0.3c-5.7-16.3-21.2-28.1-39.5-28.1-23.1 0-41.8 18.7-41.8 41.8s18.7 41.8 41.8 41.8c5.6 0 10.9-1.1 15.7-3.1l6.1 6.2c6.3 6.4 12.2 13.4 17.5 20.8 23.6 32.4 35.4 70 33.4 105.8-1.9 33.2-15.6 60.7-38.8 77.5-23.1 16.8-53.5 21.4-85.7 12.9-34.7-9.1-66.8-32-90.3-64.4-5.8-8-11-16.4-15.3-25l-5.3-10.3c10.4-7.6 17.2-19.9 17.2-33.8 0-23.1-18.7-41.8-41.8-41.8s-41.8 18.7-41.8 41.8c0 13.1 6 24.8 15.4 32.4l-5.9 11.3c-4.2 8-9 15.7-14.3 23.1-23.6 32.4-55.6 55.3-90.3 64.4-32.1 8.5-62.5 3.9-85.7-12.9-23.1-16.8-36.9-44.3-38.8-77.5-2-35.8 9.8-73.4 33.4-105.8 5.8-8 12.2-15.5 19-22.3l2.9-2.8c6.3 3.7 13.6 5.9 21.4 5.9 23.1 0 41.8-18.7 41.8-41.8 0-23.1-18.7-41.8-41.8-41.8-16.1 0-30 9.1-37 22.4l-6-1c-8.9-1.5-17.8-3.7-26.4-6.5-38.1-12.4-69.8-35.8-89.2-66-18-27.9-23-58.3-14.2-85.5 8.8-27.2 30.7-48.8 61.7-60.8 33.4-13 72.8-13.3 111-0.9 9.3 3 18.5 6.8 27.1 11.2l7 3.6c-0.1 1.1-0.1 2.2-0.1 3.4 0 23.1 18.7 41.8 41.8 41.8 23.1 0 41.8-18.7 41.8-41.8 0-22.4-17.6-40.7-39.8-41.8l-0.2-1.4c-1.3-8.9-2-18-2-27.1 0-40.1 12.5-77.4 35.2-105.2 21-25.7 48.3-39.9 76.9-39.9 28.6 0 55.9 14.2 76.9 39.9 22.7 27.8 35.2 65.2 35.2 105.2 0 9.8-0.8 19.7-2.3 29.2l-1.3 8c-17.7 4.9-30.7 21.1-30.7 40.3 0 23.1 18.7 41.8 41.8 41.8 23.1 0 41.8-18.7 41.8-41.8 0-4-0.6-7.8-1.6-11.4 8-4 16.5-7.4 25.2-10.2 38.1-12.4 77.5-12 110.9 1 31 12 52.9 33.6 61.7 60.8 8.9 27 3.8 57.4-14.1 85.3z" p-id="19593" fill="#e9374c"></path><path d="M513.1 421.2c-64.8 0-117.4 52.7-117.4 117.4 0 64.8 52.7 117.4 117.4 117.4 64.8 0 117.4-52.7 117.4-117.4 0-64.8-52.6-117.4-117.4-117.4z m0 164.8c-26.2 0-47.4-21.3-47.4-47.4 0-26.2 21.3-47.4 47.4-47.4 26.2 0 47.4 21.3 47.4 47.4 0 26.2-21.2 47.4-47.4 47.4z" p-id="19594" fill="#e9374c"></path></svg>