<svg t="1614864981685" class="icon" viewBox="0 0 1024 1024" version="1.1" xmlns="http://www.w3.org/2000/svg" p-id="45857" width="16" height="16"><path d="M292.1 855.9c-49.5 0-89.8-40.3-89.8-89.8 0-40.3 27.1-76 66-86.6 4.8-1.3 9.7 1.5 11.1 6.3s-1.5 9.7-6.3 11.1c-31.1 8.5-52.8 37-52.8 69.2 0 39.6 32.2 71.8 71.8 71.8 28 0 53.7-16.5 65.3-42 2.1-4.5 7.4-6.5 11.9-4.4 4.5 2.1 6.5 7.4 4.4 11.9-14.5 31.9-46.5 52.5-81.6 52.5z" fill="#E8515B" p-id="45858"></path><path d="M365.6 808.7c-1.3 0-2.5-0.3-3.7-0.8-4.5-2.1-6.5-7.4-4.4-11.9 4.3-9.4 6.5-19.4 6.5-29.8 0-39.6-32.2-71.8-71.8-71.8-5.3 0-10.6 0.6-15.7 1.7-4.9 1.1-9.7-2-10.7-6.8-1.1-4.9 2-9.7 6.8-10.7 6.4-1.4 13-2.2 19.6-2.2 49.5 0 89.8 40.3 89.8 89.8 0 13-2.7 25.6-8.1 37.3-1.6 3.3-4.9 5.2-8.3 5.2zM738.6 846.4c-49.5 0-89.8-40.3-89.8-89.8s40.3-89.8 89.8-89.8 89.8 40.3 89.8 89.8-40.3 89.8-89.8 89.8z m0-161.6c-39.6 0-71.8 32.2-71.8 71.8s32.2 71.8 71.8 71.8 71.8-32.2 71.8-71.8-32.2-71.8-71.8-71.8zM425.8 337.8c-10.6 0-19.3-8.6-19.3-19.3s8.6-19.3 19.3-19.3S445 308 445 318.6s-8.6 19.2-19.2 19.2z m0-20.5c-0.7 0-1.3 0.6-1.3 1.3s0.6 1.3 1.3 1.3 1.3-0.6 1.3-1.3-0.6-1.3-1.3-1.3zM603.6 337.8c-10.6 0-19.3-8.6-19.3-19.3s8.6-19.3 19.3-19.3 19.3 8.6 19.3 19.3-8.7 19.3-19.3 19.3z m0-20.5c-0.7 0-1.3 0.6-1.3 1.3s0.6 1.3 1.3 1.3 1.3-0.6 1.3-1.3-0.6-1.3-1.3-1.3z" fill="#E8515B" p-id="45859"></path><path d="M281.8 684.3c-3.8 0-7.4-2.5-8.6-6.3-5.2-16.4-8.4-30.9-8.4-52.4 0-5 4-9 9-9s9 4 9 9c0 19.2 2.9 32.3 7.6 47 1.5 4.7-1.1 9.8-5.9 11.3-0.9 0.3-1.8 0.4-2.7 0.4zM503.9 829.3c-50 0-91.3-9.4-130-29.5-4.4-2.3-6.1-7.7-3.8-12.1 2.3-4.4 7.7-6.1 12.1-3.8 36 18.7 74.7 27.5 121.7 27.5 59.6 0 112.2-13.9 152.1-40.2 4.2-2.7 9.7-1.6 12.5 2.6 2.7 4.2 1.6 9.7-2.6 12.5-42.9 28.1-98.9 43-162 43zM736.9 684.3c-0.8 0-1.6-0.1-2.4-0.3-4.8-1.3-7.6-6.3-6.3-11.1 4.6-16.8 7-35 7-53.9 0-5 4-9 9-9s9 4 9 9c0 20.6-2.6 40.4-7.6 58.7-1.1 4-4.7 6.6-8.7 6.6zM748.2 480.4c-0.8 0-1.7-0.1-2.5-0.4-4.8-1.4-7.5-6.4-6.1-11.2 5.9-20.3 5.9-29.6 5.9-52 0-46.8-14-92-40.5-130.5-2.3-3.3-2.1-7.8 0.5-10.9 5.3-6.3 8.2-14.3 8.2-22.5 0-19.4-15.8-35.2-35.2-35.2-8.2 0-16.2 2.9-22.5 8.2-3.1 2.6-7.5 2.8-10.9 0.5C606.6 200 561.5 186 514.7 186c-47.6 0-93.3 14.4-132.2 41.6-3.5 2.4-8.1 2.1-11.2-0.7-6.5-6-14.9-9.2-23.7-9.2-19.4 0-35.2 15.8-35.2 35.2 0 9 3.4 17.6 9.7 24.2 2.9 3.1 3.3 7.7 0.9 11.2-25.6 38.1-39.1 82.5-39.1 128.5v6.6c-0.1 18-0.1 24 5.1 41.9 1.4 4.8-1.4 9.8-6.1 11.2-4.8 1.4-9.8-1.4-11.2-6.1-5.9-20.3-5.9-28.7-5.8-47v-6.6c0-47.3 13.3-93.1 38.4-132.9-6.5-9-10-19.8-10-31 0-29.4 23.9-53.2 53.2-53.2 10.8 0 21.3 3.3 30.2 9.4 40.7-26.9 87.9-41.1 136.9-41.1 48.3 0 94.9 13.8 135.2 40 8.5-5.4 18.4-8.3 28.5-8.3 29.4 0 53.2 23.9 53.2 53.2 0 10.1-2.9 20-8.3 28.5 26.2 40.3 40.1 87 40.1 135.4 0 22.8 0 34.3-6.6 57-1 4-4.6 6.6-8.5 6.6z" fill="#E8515B" p-id="45860"></path><path d="M730.8 480.4c-3.7 0-7.2-2.3-8.5-6-4.9-13.7-12.4-21-23.6-32.1-1.8-1.7-3.6-3.5-5.5-5.5-48.5-48.5-127.5-48.5-176 0l-0.4 0.4c-1.8 1.8-4.2 2.8-6.8 2.6-2.5-0.1-4.9-1.3-6.5-3.2-2.5-3-4.9-5.6-7.2-7.9-23.5-23.5-54.8-36.5-88-36.5s-64.5 12.9-88 36.5l-1.8 1.8c-18.3 18.3-19.4 19.4-23.3 42-0.8 4.9-5.5 8.2-10.4 7.3-4.9-0.8-8.2-5.5-7.3-10.4 4.7-27.4 8.6-31.9 28.3-51.6l1.8-1.8c26.9-26.9 62.7-41.7 100.7-41.7S482.1 389.1 509 416l1.9 1.9c55.9-49.3 141.5-47.3 194.9 6.1 1.9 1.9 3.7 3.6 5.4 5.3 12.1 11.9 21.7 21.3 28 38.9 1.7 4.7-0.8 9.8-5.4 11.5-1 0.5-2 0.7-3 0.7zM510.8 803.6c-10.5 0-21-4-29-12L357 666.1c-3.5-3.5-3.5-9.2 0-12.7s9.2-3.5 12.7 0l124.7 125.5c9 9 23.6 9 32.6 0l178.7-178.7c3.5-3.5 9.2-3.5 12.7 0s3.5 9.2 0 12.7L539.8 791.6c-8 8-18.5 12-29 12z" fill="#E8515B" p-id="45861"></path><path d="M273.5 630.5c-42.9 0-77.8-34.9-77.8-77.8s34.9-77.8 77.8-77.8 77.8 34.9 77.8 77.8c0 42.8-34.9 77.8-77.8 77.8z m0-137.7c-33 0-59.8 26.8-59.8 59.8s26.8 59.8 59.8 59.8 59.8-26.8 59.8-59.8-26.8-59.8-59.8-59.8zM738.6 620.9c-42.9 0-77.8-34.9-77.8-77.8s34.9-77.8 77.8-77.8 77.8 34.9 77.8 77.8c0.1 42.9-34.9 77.8-77.8 77.8z m0-137.7c-33 0-59.8 26.8-59.8 59.8s26.8 59.8 59.8 59.8 59.8-26.8 59.8-59.8-26.8-59.8-59.8-59.8z" fill="#E8515B" p-id="45862"></path></svg>