<svg t="1615900904824" class="icon" viewBox="0 0 1024 1024" version="1.1" xmlns="http://www.w3.org/2000/svg" p-id="10413" width="32" height="32"><path d="M564.317091 844.893091l-39.098182 39.098182c-3.444364 3.444364-8.192 5.399273-13.125818 5.399272-5.026909 0-9.681455-1.954909-13.125818-5.399272L134.050909 519.261091l-0.186182-0.186182-0.093091-0.093091c-21.504-20.666182-38.353455-44.869818-50.176-72.052363C71.400727 418.816 65.163636 388.840727 65.163636 357.934545c0-59.671273 23.272727-115.805091 65.442909-157.975272s98.304-65.442909 157.975273-65.442909c44.962909 0 88.343273 13.312 125.393455 38.446545 35.374545 24.017455 62.929455 57.344 79.778909 96.349091 1.303273 5.585455 5.213091 10.519273 10.891636 12.846545 4.840727 2.048 9.960727 1.861818 14.429091-0.09309h0.093091c5.492364-2.327273 9.309091-6.981818 10.798545-12.288 16.849455-39.191273 44.404364-72.610909 79.872-96.814546 37.050182-25.227636 80.430545-38.539636 125.486546-38.539636 59.671273 0 115.805091 23.272727 157.975273 65.442909s65.442909 98.304 65.442909 157.975273c0 36.584727-9.029818 72.797091-26.065455 104.820363-4.840727 9.122909-1.396364 20.386909 7.726546 25.227637 2.792727 1.489455 5.771636 2.141091 8.750545 2.14109 6.702545 0 13.125818-3.537455 16.477091-9.867636 19.921455-37.422545 30.440727-79.685818 30.440727-122.321454 0-69.632-27.089455-135.074909-76.334545-184.32-49.245091-49.245091-114.688-76.334545-184.32-76.334546-52.503273 0-103.144727 15.546182-146.338909 44.962909-31.464727 21.410909-57.623273 49.152-77.079273 81.361455-19.362909-32.209455-45.614545-59.950545-77.079273-81.361455-43.287273-29.416727-93.835636-44.962909-146.338909-44.962909-69.632 0-135.074909 27.089455-184.32 76.334546-49.245091 49.245091-76.334545 114.688-76.334545 184.32 0 36.119273 7.261091 71.028364 21.504 103.889454 13.777455 31.650909 33.419636 59.857455 58.368 83.968L472.529455 910.429091c10.519273 10.519273 24.576 16.290909 39.470545 16.290909 14.987636 0 28.951273-5.771636 39.470545-16.290909l39.098182-39.098182c7.261091-7.261091 7.261091-19.083636 0-26.344727s-18.990545-7.354182-26.251636-0.093091z" fill="#666666" p-id="10414"></path><path d="M976.802909 652.753455h-176.872727v-176.872728c0-10.24-8.378182-18.618182-18.618182-18.618182s-18.618182 8.378182-18.618182 18.618182v176.872728h-176.872727c-10.24 0-18.618182 8.378182-18.618182 18.618181s8.378182 18.618182 18.618182 18.618182h176.872727v176.872727c0 10.24 8.378182 18.618182 18.618182 18.618182s18.618182-8.378182 18.618182-18.618182v-176.872727h176.872727c10.24 0 18.618182-8.378182 18.618182-18.618182s-8.378182-18.618182-18.618182-18.618181z" fill="#666666" p-id="10415"></path></svg>