<svg t="1614688281548" class="icon" viewBox="0 0 1024 1024" version="1.1" xmlns="http://www.w3.org/2000/svg" p-id="7748" width="16" height="16"><path d="M614.28736 76.8a342.22592 342.22592 0 0 0-267.43296 556.92288L252.16 728.2688 136.03328 612.352a34.66752 34.66752 0 0 0-49.06496 48.98304l116.12672 115.93728-116.12672 115.92192a34.6624 34.6624 0 0 0 49.06496 48.97792l116.12672-115.93728 116.1216 115.93728a34.6624 34.6624 0 1 0 49.06496-48.97792l-116.12672-115.9424 94.2848-94.1312A342.76864 342.76864 0 1 0 614.28736 76.8z m0 615.936a273.32096 273.32096 0 1 1 273.7664-273.32096 273.85344 273.85344 0 0 1-273.7664 273.32096z" fill="#e9374c" p-id="7749"></path></svg>