<svg t="1615896377468" class="icon" viewBox="0 0 1024 1024" version="1.1" xmlns="http://www.w3.org/2000/svg" p-id="2327" width="16" height="20"><path d="M514.56 890.88a376.32 376.32 0 1 1 376.32-376.32 376.74496 376.74496 0 0 1-376.32 376.32z m0-706.56a330.24 330.24 0 1 0 330.24 330.24A330.61376 330.61376 0 0 0 514.56 184.32z" fill="#2966C1" p-id="2328"></path><path d="M729.39008 537.6h-184.69376A37.62176 37.62176 0 0 1 506.88 500.25472V243.04128a23.19872 23.19872 0 0 1 46.39232 0v248.7296h176.128a22.92224 22.92224 0 1 1-0.01024 45.82912z" fill="#FD9A16" p-id="2329"></path></svg>