<?xml version="1.0" encoding="utf-8"?>
<!-- Generator: Adobe Illustrator 22.0.0, SVG Export Plug-In . SVG Version: 6.00 Build 0)  -->
<svg version="1.1" id="图层_1" xmlns="http://www.w3.org/2000/svg" xmlns:xlink="http://www.w3.org/1999/xlink" x="0px" y="0px"
	 viewBox="0 0 750 1125" style="enable-background:new 0 0 50 75;" xml:space="preserve">
<style type="text/css">
	.st0{fill:#F2F4D1;stroke:#000000;stroke-width:2;stroke-linecap:round;stroke-linejoin:round;stroke-miterlimit:10;}
	.st1{opacity:0.54;fill:#FD756E;}
	.st2{opacity:0.54;fill:#FD524F;}
	.st3{fill:none;stroke:#000000;stroke-width:2;stroke-linecap:round;stroke-linejoin:round;stroke-miterlimit:10;}
	.st4{fill:#3C53E1;stroke:#000000;stroke-width:2;stroke-linecap:round;stroke-linejoin:round;stroke-miterlimit:10;}
	.st5{fill:#F5F791;stroke:#000000;stroke-width:2;stroke-linecap:round;stroke-linejoin:round;stroke-miterlimit:10;}
</style>
<g>
	<path class="st0" d="M256.5,679.9c0,0-64.2-6-80.4-86s-45.9-161.2-79.2-121.4c-33.3,39.8-7.5,104.3,33.3,142
		s101.3,90.7,103.9,106.7C236.7,737.2,256.5,679.9,256.5,679.9z"/>
	<path class="st0" d="M338.9,850.5c0,0,33.8,14.3,0.8,34.4s-86.1-47.3-63.2-73.2c0,0-66-40.2-38.7-100.4s68.7-53.1,85.3-243.8
		c0,0-46.6-78.4-7.6-125.1c1.8-2.2,5.2-2.3,7.2-0.2l29.6,30.6c0,0,18.5-20.1,47.4-15.8c0,0,11.7-31.9,27.9-39.4s16.2,48.9,16.2,48.9
		s29.2,37.3,12,72.7c0,0,8.5,15.3,34.4,13.9l20-41.1c3.1-6.3,0.9-14.9-4.8-19c-10.3-7.6-12.4-19.1,6.9-15.5c1.1,6.4-6-26.7,7.3-18.3
		c12.2,7.7,9.3,17.2,9.3,17.2s2.9-23.7,10-19.4c7.2,4.3,8.6,17.2,8.6,17.2s10.2-15,14.3-4.3c3.6,9.3-3.5,22.6-3.5,22.6
		s3.6,30.7-6.6,65.7c-10,34.4-53.1,83.9-61.7,89.6c-8.6,5.7,14.4,137.7-57.7,190.4c0,0,30.8,47.3,29.4,69.9s-14.3,28-14.3,28
		s28,2.2,31.2,17.2s-45.6,37.7-80.4,15.1c-34.7-22.6-23.6-84.4-23.6-84.4S363.6,845.9,338.9,850.5z"/>
	<circle class="st1" cx="389.8" cy="447.9" r="19.8"/>
	<ellipse class="st2" cx="534.1" cy="394" rx="19.8" ry="16.2"/>
	<circle cx="431.1" cy="402.8" r="7.3"/>
	<path class="st3" d="M481.6,471.2c0,0,4.9-10.4,8.5-17.9"/>
	<path class="st0" d="M366.4,499.4c0,0,46.4-23.6,65.9-72c0,0-13.3-32.9-1.4-29.3c11.9,3.6,10.3,11.5,10.3,11.5s11.7-27.1,16.6-20.3
		c7.7,10.7,0.1,21.7,0.1,21.7s15.8-19.7,20.7-14.2c7.3,8.2-5.5,20.7-5.5,20.7s20.2-4.2,14.8,4.2c-3.2,4.9-8.5,9.8-12.2,12.9
		c-2.9,2.4-6,11.6-6.6,15.2c-3,15.7-11.5,53.3-30.4,71.5c-16.6,15.9-56.5,40.4-56.5,40.4"/>
	<circle cx="397.1" cy="417.5" r="7.3"/>
	<line class="st3" x1="397.1" y1="434.8" x2="360.9" y2="439.3"/>
	<line class="st3" x1="360.9" y1="453.2" x2="399.7" y2="439.3"/>
	<line class="st3" x1="402.2" y1="444.6" x2="366.4" y2="471.2"/>
	<path class="st4" d="M319.5,362.2c0,0-15,19.5-5.6,40.6c0,0,16.6-22,27.3-23.4C341.2,379.4,322.7,357,319.5,362.2z"/>
	<path class="st4" d="M413.4,354.5c-2.1,0.7,4-16.8,15.8-24.7c0,0,10.9,18.9,8.1,37.4C437.2,367.2,418.8,352.7,413.4,354.5z"/>
	<path class="st0" d="M315.9,874.5c0,0,13.7,3.9,14.6,13.9"/>
	<path class="st0" d="M329.4,867c0,0,14.8,2.9,15.6,14.4"/>
	<path class="st0" d="M338.6,860.4c0,0,12.6,2.4,14.4,11.8"/>
	<path d="M300.2,603.6c0,0,42,80.8-66.9,120.5c0,0,17.4-44.2,31-56.4C277.9,655.5,300.2,603.6,300.2,603.6z"/>
	<path d="M495.3,542.3c0,0,6-78.6,56.6-84l0.2,7.3C552.1,465.5,509.4,534.8,495.3,542.3z"/>
	<path class="st5" d="M423.8,877.5"/>
	<path class="st0" d="M457.1,846.8c0,0,17-1.4,21.6,6.7"/>
	<path class="st0" d="M451.8,853.4c0,0,24.2-1.3,23.6,9.1"/>
	<path class="st0" d="M446,860.4c0,0,22.1-2.9,21.7,8.2"/>
</g>
</svg>
