<svg t="1615986908660" class="icon" viewBox="0 0 1024 1024" version="1.1" xmlns="http://www.w3.org/2000/svg" p-id="17027" width="30" height="30"><path d="M726.4 875.1c-17.1 0-33.6-5.5-47.9-15.8l-153-111.5-155.8 111.5c-36.3 26.2-88.5 17.1-114.9-18.5-16.3-22-21.1-49.9-13.1-76.7L296.3 576 145.4 454.5c-28.7-23.1-39.7-60.1-28-94.4 11.4-33.6 41.7-55.7 77.3-56.4l186.1-0.9 63.8-192.4c0.2-0.7 0.4-1.4 0.7-2.1 0.1-0.3 0.3-0.7 0.4-1 12.7-33.6 43.4-55.4 78.4-55.4 34.9 0 65.6 21.7 78.4 55.3 0.3 0.7 0.5 1.5 0.8 2.2 0.1 0.3 0.2 0.5 0.3 0.8L665 301l187.9 2.6h0.5c35.6 0.7 66 22.9 77.3 56.6 11.6 34.4 0.4 71.4-28.5 94.3l-150 118.9 53.8 191c7.9 26.8 3.2 54.8-13.2 76.7-15.9 21.3-40.7 34-66.4 34zM524.1 682.5c13.9 0 27.8 4.3 39.6 12.9l153 111.5c3.9 2.8 7.4 3.4 9.7 3.4 5.3 0 10.8-3.1 14.5-8 2.9-3.9 5.7-10.4 3-19.7L689.2 594c-7.6-26.4 1.3-54.4 22.8-71.5l150-119c11-8.7 8.4-19.7 7.3-22.8-1.5-4.5-5.7-12.1-17-12.4l-185.3-0.8c-29.1-0.1-54.8-18.9-63.7-46.6l-61.4-190.6c-0.1-0.3-0.3-0.7-0.3-1-4.8-11.8-14.6-12.7-17.5-12.7-2.9 0-12.8 0.9-17.6 13.1 0 0.1-0.1 0.3-0.1 0.4L444.8 321c-9 27.8-34.6 46.5-63.7 46.6l-185.6 0.9c-10.9 0.2-15.2 7.9-16.7 12.5-1.1 3.2-3.8 14.2 7 22.9l149.9 118.8c21.5 17.1 30.5 45.1 22.8 71.5l-54.6 188.4c-2.8 9.3 0 15.8 2.9 19.6 3.8 5.1 9.5 8.2 15 8.2 2.3 0 5.9-0.6 9.8-3.5l152.8-111.4c11.9-8.7 25.8-13 39.7-13z" fill="#666666" p-id="17028"></path></svg>