<svg t="1614263508935" class="icon" viewBox="0 0 1024 1024" version="1.1" xmlns="http://www.w3.org/2000/svg" p-id="2105" width="16" height="16"><path d="M511.6 1012c-24.4 0-46.7-10.9-61.4-30.1L188 640.2c-4-4.5-6.6-8.9-8.2-11.7C133 563 108.2 485.6 108.2 405c1-216.8 182.3-393 404.3-393 222.4 0 403.4 176.3 403.4 393-0.9 80.8-25.8 157.7-72 222.8-2.2 3.7-4.8 8-8.7 12.4L573 981.9c-14.7 19.2-37.1 30.1-61.4 30.1zM245.1 588.7c1 1.1 2 2.2 2.9 3.4l263.2 343 263.9-343c0.5-0.6 1-1.3 1.5-1.9l2.8-4.6c0.3-0.5 0.7-1 1-1.5 37.5-52.5 57.7-114.6 58.5-179.6 0-173.8-146.4-315.6-326.5-315.6-179.7 0-326.6 141.8-327.4 316.2 0 64.3 19.9 126.3 57.6 179l3.2 5.1c0.6 0.9-0.1 0.1-0.7-0.5z" fill="#ce9989" p-id="2106"></path><path d="M512 585c-100.7 0-182.7-82-182.7-182.7s82-182.7 182.7-182.7 182.7 82 182.7 182.7S612.7 585 512 585z m0-269.2c-47.7 0-86.5 38.8-86.5 86.5s38.8 86.5 86.5 86.5 86.5-38.8 86.5-86.5-38.8-86.5-86.5-86.5z" fill="#ce9989" p-id="2107"></path></svg>