<svg t="1615980767764" class="icon" viewBox="0 0 1024 1024" version="1.1" xmlns="http://www.w3.org/2000/svg" p-id="7343" width="48" height="48"><path d="M749.5 433.9c50.2-96.9 25.3-179.5 25.3-179.5s-120-18.1-169.1 27l143.8 152.5z" fill="#EF94AE" p-id="7344"></path><path d="M600.2 275.5c21.8-20 58.2-30.9 108.1-32.5 36.4-1.1 66.3 3.3 67.6 3.5 3.1 0.5 5.6 2.6 6.5 5.6 0.3 0.9 6.6 22.2 6.5 55.8 0 30.8-5.7 78.3-32.4 129.8-1.1 2.2-157.9-160.8-156.3-162.2z m17.1 6.6l130 137.9c20.8-44.4 25.4-84.8 25.5-111.6 0.1-22.3-2.9-39-4.6-46.8-22-2.6-108-10.3-150.9 20.5z" fill="" p-id="7345"></path><path d="M273.2 433.9C223 337 247.9 254.4 247.9 254.4s120-18.1 169.1 27L273.2 433.9z" fill="#EF94AE" p-id="7346"></path><path d="M266.1 437.6c-26.7-51.5-32.3-99-32.4-129.8 0-33.6 6.3-54.9 6.5-55.8 0.9-3 3.4-5.1 6.5-5.6 1.3-0.2 31.1-4.6 67.6-3.5 49.9 1.5 86.3 12.5 108.1 32.5 1.6 1.5-155.1 164.5-156.3 162.2z m-11.7-176c-1.7 7.8-4.7 24.5-4.6 46.8 0.1 26.8 4.8 67.2 25.5 111.6l130-137.9c-24.3-17.4-62.5-22.3-91.5-23.2-26.3-0.8-49.4 1.5-59.4 2.7z" fill="" p-id="7347"></path><path d="M512.4 516m-258 0a258 258 0 1 0 516 0 258 258 0 1 0-516 0Z" fill="#FFFFFF" p-id="7348"></path><path d="M512.4 274c32.7 0 64.4 6.4 94.2 19 28.8 12.2 54.7 29.6 76.9 51.9 22.2 22.2 39.7 48.1 51.9 76.9 12.6 29.8 19 61.5 19 94.2s-6.4 64.4-19 94.2c-12.2 28.8-29.6 54.7-51.9 76.9-22.2 22.2-48.1 39.7-76.9 51.9-29.8 12.6-61.5 19-94.2 19s-64.4-6.4-94.2-19c-28.8-12.2-54.7-29.6-76.9-51.9-22.2-22.2-39.7-48.1-51.9-76.9-12.6-29.8-19-61.5-19-94.2s6.4-64.4 19-94.2c12.2-28.8 29.6-54.7 51.9-76.9 22.2-22.2 48.1-39.7 76.9-51.9 29.8-12.6 61.5-19 94.2-19m0-16c-142.5 0-258 115.5-258 258s115.5 258 258 258 258-115.5 258-258-115.5-258-258-258z" fill="" p-id="7349"></path><path d="M416.3 429.2m-18 0a18 18 0 1 0 36 0 18 18 0 1 0-36 0Z" fill="" p-id="7350"></path><path d="M608.4 429.2m-18 0a18 18 0 1 0 36 0 18 18 0 1 0-36 0Z" fill="" p-id="7351"></path><path d="M322.9 570.9c-0.9 0-1.8-0.2-2.7-0.5l-158-56.5c-4.2-1.5-6.3-6.1-4.8-10.2 1.5-4.2 6.1-6.3 10.2-4.8l158 56.5c4.2 1.5 6.3 6.1 4.8 10.2-1.2 3.3-4.3 5.3-7.5 5.3zM322.9 598h-158c-4.4 0-8-3.6-8-8s3.6-8 8-8h158c4.4 0 8 3.6 8 8s-3.6 8-8 8zM164.9 679.4c-3.4 0-6.5-2.1-7.6-5.5-1.4-4.2 0.9-8.7 5.1-10.1l158-52c4.2-1.4 8.7 0.9 10.1 5.1 1.4 4.2-0.9 8.7-5.1 10.1l-158 52c-0.9 0.3-1.7 0.4-2.5 0.4z" fill="" p-id="7352"></path><path d="M701.9 570.9c-3.3 0-6.4-2-7.5-5.3-1.5-4.2 0.7-8.7 4.8-10.2l158-56.5c4.2-1.5 8.7 0.7 10.2 4.8s-0.7 8.7-4.8 10.2l-158 56.5c-0.9 0.4-1.8 0.5-2.7 0.5zM859.9 598h-158c-4.4 0-8-3.6-8-8s3.6-8 8-8h158c4.4 0 8 3.6 8 8s-3.6 8-8 8zM859.9 679.4c-0.8 0-1.7-0.1-2.5-0.4l-158-52c-4.2-1.4-6.5-5.9-5.1-10.1 1.4-4.2 5.9-6.5 10.1-5.1l158 52c4.2 1.4 6.5 5.9 5.1 10.1-1.1 3.4-4.2 5.5-7.6 5.5z" fill="" p-id="7353"></path></svg>