<svg t="1615981659894" class="icon" viewBox="0 0 1024 1024" version="1.1" xmlns="http://www.w3.org/2000/svg" p-id="12176" width="32" height="32"><path d="M80.896 704.512c-35.84-115.712 133.12-268.288 385.024-347.136 251.904-78.848 478.208-50.176 514.048 65.536l-29.696 9.216c-29.696-96.256-247.808-116.736-476.16-46.08-228.352 71.68-395.264 212.992-365.568 308.224l-27.648 10.24z" fill="#330867" p-id="12177"></path><path d="M537.6 537.6m-310.272 0a310.272 310.272 0 1 0 620.544 0 310.272 310.272 0 1 0-620.544 0Z" fill="#66C1FF" p-id="12178"></path><path d="M537.6 863.232C358.4 863.232 211.968 716.8 211.968 537.6S358.4 211.968 537.6 211.968 863.232 358.4 863.232 537.6 717.824 863.232 537.6 863.232z m0-620.544c-162.816 0-294.912 132.096-294.912 294.912s132.096 294.912 294.912 294.912 294.912-132.096 294.912-294.912-132.096-294.912-294.912-294.912z" fill="#330867" p-id="12179"></path><path d="M589.824 788.48C428.032 788.48 296.96 657.408 296.96 494.592c0-78.848 31.744-150.528 81.92-203.776-81.92 52.224-136.192 143.36-136.192 247.808 0 161.792 131.072 293.888 293.888 293.888 82.944 0 157.696-34.816 210.944-90.112-45.056 29.696-99.328 46.08-157.696 46.08z" fill="#99CAFF" p-id="12180"></path><path d="M585.877659 474.127803a62.464 62.464 0 1 0 28.709946-121.584309 62.464 62.464 0 1 0-28.709946 121.584309Z" fill="#FC6B79" p-id="12181"></path><path d="M600.064 490.496c-43.008 0-77.824-34.816-77.824-77.824s34.816-77.824 77.824-77.824 77.824 34.816 77.824 77.824-34.816 77.824-77.824 77.824z m0-123.904c-25.6 0-47.104 20.48-47.104 47.104s20.48 47.104 47.104 47.104 47.104-20.48 47.104-47.104-21.504-47.104-47.104-47.104z" fill="#330867" p-id="12182"></path><path d="M103.424 693.248m-62.464 0a62.464 62.464 0 1 0 124.928 0 62.464 62.464 0 1 0-124.928 0Z" fill="#FC6B79" p-id="12183"></path><path d="M103.424 770.048c-43.008 0-77.824-34.816-77.824-77.824S60.416 614.4 103.424 614.4s77.824 34.816 77.824 77.824-35.84 77.824-77.824 77.824z m0-123.904c-25.6 0-47.104 20.48-47.104 47.104s20.48 47.104 47.104 47.104 47.104-20.48 47.104-47.104-21.504-47.104-47.104-47.104z" fill="#330867" p-id="12184"></path><path d="M527.36 671.744m-30.72 0a30.72 30.72 0 1 0 61.44 0 30.72 30.72 0 1 0-61.44 0Z" fill="#FFE08A" p-id="12185"></path><path d="M527.36 718.848c-25.6 0-46.08-20.48-46.08-46.08s20.48-46.08 46.08-46.08 46.08 20.48 46.08 46.08-20.48 46.08-46.08 46.08z m0-62.464c-8.192 0-15.36 7.168-15.36 15.36s7.168 15.36 15.36 15.36 15.36-7.168 15.36-15.36-6.144-15.36-15.36-15.36z" fill="#330867" p-id="12186"></path><path d="M1003.52 418.816c0 25.6-20.48 46.08-46.08 46.08s-46.08-20.48-46.08-46.08 20.48-46.08 46.08-46.08c25.6-1.024 46.08 20.48 46.08 46.08z" fill="#FFE08A" p-id="12187"></path><path d="M957.44 480.256c-33.792 0-61.44-27.648-61.44-61.44s27.648-61.44 61.44-61.44 61.44 27.648 61.44 61.44-27.648 61.44-61.44 61.44z m0-93.184c-17.408 0-30.72 14.336-30.72 30.72s14.336 30.72 30.72 30.72 30.72-14.336 30.72-30.72-14.336-30.72-30.72-30.72z" fill="#330867" p-id="12188"></path><path d="M327.68 815.104c-12.288 0-23.552 0-35.84-1.024-114.688-7.168-191.488-47.104-210.944-109.568-2.048-8.192 2.048-16.384 10.24-19.456 8.192-2.048 16.384 2.048 19.456 10.24 15.36 49.152 82.944 81.92 184.32 87.04 86.016 5.12 189.44-10.24 291.84-41.984 97.28-30.72 184.32-72.704 251.904-122.88 87.04-64.512 129.024-134.144 112.64-185.344-2.048-8.192 2.048-16.384 10.24-19.456 8.192-2.048 16.384 2.048 19.456 10.24 20.48 65.536-24.576 145.408-123.904 219.136-70.656 52.224-160.768 96.256-261.12 128-93.184 29.696-186.368 45.056-268.288 45.056z" fill="#330867" p-id="12189"></path></svg>