<?xml version="1.0" standalone="no"?><!DOCTYPE svg PUBLIC "-//W3C//DTD SVG 1.1//EN" "http://www.w3.org/Graphics/SVG/1.1/DTD/svg11.dtd"><svg t="1614245495896" class="icon" viewBox="0 0 1024 1024" version="1.1" xmlns="http://www.w3.org/2000/svg" p-id="10031" width="32" height="32" xmlns:xlink="http://www.w3.org/1999/xlink"><defs><style type="text/css"></style></defs><path d="M543.7 929.5H437.8c-107.7 0-195.7-108.4-195.7-240.8V331c0-132.4 88.1-240.8 195.7-240.8h166.1c107.7 0 195.7 108.4 195.7 240.8l9.7 165.4" fill="#FFEBF5" p-id="10032"></path><path d="M693.1 901.2c-6.2 0-12.3-2.1-17.2-5.9l-108.1-83.5c-12.3-9.5-14.6-27.2-5.1-39.5l205.9-266.5c32.5-42.1 93.2-49.9 135.3-17.4 42.1 32.5 49.9 93.2 17.4 135.3L715.4 890.2c-4.6 5.9-11.3 9.8-18.7 10.7-1.2 0.2-2.4 0.3-3.6 0.3z m-68.6-116.8l63.5 49 188.7-244.2c13.5-17.5 10.3-42.7-7.2-56.2s-42.7-10.3-56.3 7.2L624.5 784.4z" fill="#FE9BC2" p-id="10033"></path><path d="M564.6 955.9c-6.1 0-12.2-2-17.2-5.9-8.2-6.3-12.2-16.6-10.6-26.8L560.2 778c1.6-9.8 8.2-18.1 17.5-21.7 9.2-3.6 19.7-2.2 27.6 3.9l111 85.8c7.9 6.1 11.9 15.8 10.8 25.7-1.2 9.9-7.5 18.4-16.6 22.4L576 953.5c-3.7 1.6-7.6 2.4-11.4 2.4z m43.7-122.1l-7.6 47.1 43.7-19.3-36.1-27.8zM854.5 674.3c-6 0-12.1-1.9-17.2-5.9l-90.6-70c-12.3-9.5-14.6-27.2-5.1-39.5 9.4-12.3 27.2-14.6 39.5-5.1l90.6 70c12.3 9.5 14.6 27.2 5.1 39.5-5.5 7.2-13.8 11-22.3 11z" fill="#FE9BC2" p-id="10034"></path><path d="M484.8 959.6H354.5c-148.3 0-269-120.7-269-269V332.9c0-148.3 120.7-269 269-269h204.3c148.3 0 269 120.7 269 269v38.8c0 15.6-12.6 28.2-28.2 28.2s-28.2-12.6-28.2-28.2v-38.8c0-117.2-95.4-212.6-212.6-212.6H354.5c-117.2 0-212.6 95.4-212.6 212.6v357.7c0 117.2 95.4 212.6 212.6 212.6h130.3c15.6 0 28.2 12.6 28.2 28.2 0 15.5-12.6 28.2-28.2 28.2z" fill="#FE9BC2" p-id="10035"></path><path d="M616.4 371.6H278.1c-15.6 0-28.2-12.6-28.2-28.2s12.6-28.2 28.2-28.2h338.2c15.6 0 28.2 12.6 28.2 28.2 0.1 15.6-12.5 28.2-28.1 28.2zM564.6 507.9H278.1c-15.6 0-28.2-12.6-28.2-28.2s12.6-28.2 28.2-28.2h286.4c15.6 0 28.2 12.6 28.2 28.2s-12.6 28.2-28.1 28.2zM522.4 708.3H278.1c-15.6 0-28.2-12.6-28.2-28.2s12.6-28.2 28.2-28.2h244.3c15.6 0 28.2 12.6 28.2 28.2s-12.6 28.2-28.2 28.2z" fill="#FE9BC2" p-id="10036"></path></svg>